<svg
  xmlns="http://www.w3.org/2000/svg"
  viewBox="0 0 160 160"
  width="160"
  height="160"
>
  <g transform="scale(0.25)">
    <path
      fill="currentColor"
      d="m 349.1227,511.92596 c -23.07316,-1.98142 -49.63189,-7.55973 -70.69556,-14.84865 -12.08152,-4.18072 -33.16261,-13.05247 -32.5266,-13.68848 0.1983,-0.1983 4.37941,0.1387 9.29135,0.7489 14.37364,1.78559 43.37928,0.49216 58.16775,-2.59384 29.7831,-6.21502 59.70568,-20.13015 82.24425,-38.24669 9.82706,-7.899 26.01429,-24.55401 33.57422,-34.54442 18.89995,-24.97622 32.94882,-57.22712 37.35491,-85.75278 0.63715,-4.125 1.38837,-8.9625 1.66938,-10.75 l 0.51093,-3.25 h 83.95468 c 67.06921,0 83.95469,0.25466 83.95469,1.26618 0,3.16525 -7.18429,29.32073 -10.5154,38.28289 -32.23928,86.73789 -115.93604,149.38806 -216.4846,162.04686 -14.72186,1.85345 -46.31678,2.54803 -60.5,1.33003 z m -92,-35.03576 c 12.17649,-3.64791 31.03024,-12.58395 42.5,-20.14357 57.23586,-37.72367 95.99592,-108.08225 102.05108,-185.24663 1.08122,-13.77849 0.75089,-33.1052 -0.73065,-42.75 L 400.36708,225 h 109.90321 109.9032 l 3.24944,18.75 c 1.78719,10.3125 3.23826,19.0875 3.2246,19.5 -0.0137,0.4125 -43.22483,0.75 -96.02483,0.75 -76.12762,0 -96.00222,0.25875 -96.01071,1.25 -0.006,0.6875 -0.66635,7.4278 -1.46769,14.97844 -3.22567,30.39394 -11.19834,58.20963 -24.45059,85.30528 -26.89338,54.98636 -70.54978,94.49932 -120.27702,108.86149 -9.71699,2.80645 -28.11056,5.63485 -36.07837,5.54782 l -5.21562,-0.057 z m -30.5,-0.98071 C 219.66801,473.66333 194.15116,461.46147 99.122697,414.94049 25.444923,378.8717 -0.63894749,365.76952 2.6226925,366.46762 c 9.7617605,2.08935 18.1930605,2.70731 31.0000005,2.27212 12.15926,-0.41319 16.43716,-1.01171 26.5,-3.70761 19.33007,-5.17866 23.104304,-4.07113 39.756944,11.66649 38.600793,36.47979 71.231743,52.33327 107.624053,52.28824 26.76043,-0.0331 47.84035,-9.30174 66.86486,-29.39982 26.92934,-28.44899 45.23044,-74.20637 50.71829,-126.8086 1.74733,-16.74852 1.99943,-44.95214 0.52094,-58.27844 -3.36086,-30.29285 -13.88321,-62.02497 -26.35305,-79.47259 -1.77966,-2.49007 -3.57646,-5.0899 -3.9929,-5.7774 -0.60445,-0.99788 30.47389,-1.25 154.08387,-1.25 h 154.84104 l 4.23571,24.74999 c 2.32963,13.6125 4.22772,25.3125 4.21797,26 -0.0141,0.99324 -25.68204,1.25 -124.9587,1.25 -72.906,0 -125.17251,0.37461 -125.49689,0.89947 -0.30575,0.49471 0.16598,7.35721 1.04827,15.25 1.96558,17.5835 1.3926,58.02522 -1.07465,75.85053 -4.81931,34.81844 -12.3907,63.76263 -25.24303,96.5 -15.9977,40.74926 -37.07949,73.70817 -57.81764,90.39116 -20.56991,16.54764 -37.21658,21.94636 -52.47508,17.01833 z"
    />
  </g>
</svg>
